PathFileType	4	(X/Y/Z)	C:/Users/opensim2020/Desktop/walking_exp_matlab/subject01_walking08_straight_02.trc																																																																																																																															
DataRate	CameraRate	NumFrames	NumMarkers	Units	OrigDataRate	OrigDataStartFrame	OrigNumFrames																																																																																																																											
100	100	7	43	mm	100	2001	311																																																																																																																											
Frame#	Time	LFHD			RFHD			LBHD			RBHD			C7			T10			CLAV			STRN			RBAK			LSHO			LUPA			LELB			LFRM			LWRA			LWRB			LFIN			RSHO			RUPA			RELB			RFRM			RWRA			RWRB			RFIN			LASI			RASI			LPSI			RPSI			LTHI			LKNE			LTIB			LANK			LHEE			LTOE			RTHI			RKNE			RTIB			RANK			RHEE			RTOE			*39			*40			*41			*42		
		X1	Y1	Z1	X2	Y2	Z2	X3	Y3	Z3	X4	Y4	Z4	X5	Y5	Z5	X6	Y6	Z6	X7	Y7	Z7	X8	Y8	Z8	X9	Y9	Z9	X10	Y10	Z10	X11	Y11	Z11	X12	Y12	Z12	X13	Y13	Z13	X14	Y14	Z14	X15	Y15	Z15	X16	Y16	Z16	X17	Y17	Z17	X18	Y18	Z18	X19	Y19	Z19	X20	Y20	Z20	X21	Y21	Z21	X22	Y22	Z22	X23	Y23	Z23	X24	Y24	Z24	X25	Y25	Z25	X26	Y26	Z26	X27	Y27	Z27	X28	Y28	Z28	X29	Y29	Z29	X30	Y30	Z30	X31	Y31	Z31	X32	Y32	Z32	X33	Y33	Z33	X34	Y34	Z34	X35	Y35	Z35	X36	Y36	Z36	X37	Y37	Z37	X38	Y38	Z38	X39	Y39	Z39	X40	Y40	Z40	X41	Y41	Z41	X42	Y42	Z42	X43	Y43	Z43
																																																																																																																																		
195	1.94	-4.22473	1669.14722	-1552.66528	11.00805	1679.08459	-1440.19299	-117.84347	1618.08276	-1541.43628	-104.89594	1627.17126	-1421.24316	-148.45738	1433.14368	-1492.75537	-185.86742	1139.64465	-1468.92737	-5.12716	1364.0282	-1488.44836	37.35903	1208.59888	-1490.33289	-203.05125	1239.15125	-1408.31128	-61.8959	1389.10754	-1651.0498	-61.61712	1203.54541	-1733.22803	-40.90559	1051.22607	-1732.59412	40.53489	969.3017	-1753.24951	163.69417	905.18866	-1732.08984	116.49156	874.15881	-1753.86633	190.86833	834.74744	-1763.92603	-69.53404	1394.42615	-1337.3761	-138.82251	1198.89136	-1234.21814	-147.08531	1074.48108	-1231.00891	-129.7787	956.0473	-1198.41443	-59.29743	832.61713	-1214.20154	-102.71377	837.83093	-1175.4624	-73.50025	756.82043	-1177.55054	-19.83538	928.48694	-1572.89612	-9.0011	938.80469	-1356.59302	-203.41014	943.79578	-1508.40015	-192.46846	946.27386	-1363.70068	-84.00668	597.75604	-1610.90247	-109.58038	464.21826	-1590.35864	-184.25789	288.6048	-1590.00244	-233.76627	76.1494	-1527.07043	-278.34323	51.63646	-1471.17566	-88.12605	33.03517	-1534.67212	18.40652	612.60718	-1286.75415	74.43228	465.27124	-1315.57007	52.5254	292.72818	-1306.11548	73.78972	84.31835	-1348.62512	36.95209	38.33391	-1401.82617	216.61835	65.86225	-1343.38623	-3.93494	1710.84021	-1463.65796	-1973.11475	1023.32855	3101.91895	-2012.5127	1021.95062	3140.59302	NaN	NaN	NaN
196	1.95	3.2475	1668.55579	-1551.92444	18.46709	1678.33545	-1439.43542	-110.4557	1617.66699	-1540.78076	-97.46909	1626.65991	-1420.54736	-141.27466	1432.58704	-1492.21643	-178.77156	1139.0752	-1468.50452	1.98627	1363.37451	-1487.99878	44.3856	1207.94812	-1490.14636	-195.84511	1238.47913	-1407.90601	-54.76343	1388.75806	-1650.5603	-54.03642	1203.37866	-1732.9635	-32.57307	1051.06006	-1732.53357	49.56572	969.79956	-1753.08606	173.25543	906.78748	-1731.70483	126.43956	875.33093	-1753.55103	201.05862	836.70142	-1763.58301	-62.47699	1393.59717	-1336.927	-132.38631	1198.36633	-1234.17554	-140.7869	1073.8407	-1231.0293	-123.58693	955.30688	-1198.36011	-53.05822	831.98901	-1214.10938	-96.57375	837.14386	-1175.45703	-67.40417	756.1803	-1177.49121	-13.15269	927.91687	-1573.29858	-1.26043	938.09076	-1357.0061	-196.41383	943.33545	-1507.85303	-184.81311	945.83807	-1363.35596	-79.28806	597.36584	-1611.1051	-105.70284	463.99936	-1590.51245	-181.86919	288.96402	-1589.91907	-233.31989	76.88617	-1527.14453	-278.11832	52.94851	-1471.15466	-88.08598	32.97972	-1534.69421	23.71232	611.31177	-1286.95459	80.50433	464.573	-1316.15674	64.67608	291.67834	-1305.87708	93.73676	84.05742	-1348.06287	57.79618	36.72057	-1400.4834	237.29089	70.31414	-1344.54688	3.62465	1710.14612	-1462.82654	-1973.09839	1023.43744	3101.83887	-2012.52942	1021.9704	3140.68311	NaN	NaN	NaN
197	1.96	10.71437	1667.99182	-1551.11902	25.95409	1677.57532	-1438.57092	-103.08917	1617.24475	-1539.96875	-90.05441	1626.08179	-1419.73364	-134.11363	1432.01611	-1491.68787	-171.6465	1138.47363	-1468.00415	9.1687	1362.78662	-1487.47778	51.51022	1207.40613	-1489.9093	-188.71696	1237.82153	-1407.52075	-47.57642	1388.40649	-1650.0564	-46.42221	1203.15686	-1732.60205	-24.27149	1050.89001	-1732.34229	58.55892	970.28778	-1752.80432	182.75558	908.28827	-1731.25891	136.19614	876.46948	-1753.22974	211.14267	838.36603	-1763.0885	-55.34568	1392.90271	-1336.44849	-125.73177	1197.6366	-1233.97693	-134.35022	1073.12402	-1230.80566	-117.35967	954.63824	-1198.30811	-46.66562	831.25433	-1213.88635	-90.35551	836.29443	-1175.32434	-61.01106	755.45117	-1177.36169	-6.44714	927.37665	-1573.65027	6.68048	937.24194	-1357.35364	-189.33388	942.82367	-1507.27124	-177.04176	945.22418	-1362.81506	-74.46389	597.03558	-1611.32788	-101.74836	463.66492	-1590.62952	-179.452	289.47464	-1589.84558	-233.0331	77.96782	-1527.04126	-277.62543	54.09681	-1470.91418	-88.00372	32.94443	-1534.69519	29.37607	609.99762	-1286.93396	86.65676	463.83511	-1316.56189	76.66905	290.88712	-1305.64917	112.56882	84.23008	-1347.44299	77.558	35.41138	-1399.06665	256.60065	75.09573	-1345.90295	11.05705	1709.46887	-1461.96838	-1973.10425	1023.30426	3102.00317	-2012.48743	1021.88861	3140.70972	NaN	NaN	NaN
198	1.97	18.16639	1667.3678	-1550.16956	33.44217	1676.84924	-1437.64648	-95.68452	1616.80542	-1539.08435	-82.69559	1625.50952	-1418.85657	-126.91623	1431.42395	-1491.00525	-164.47615	1137.84717	-1467.51184	16.39095	1362.18652	-1486.98352	58.60736	1206.69275	-1489.54065	-181.48631	1237.12024	-1407.03833	-40.39632	1387.96948	-1649.42542	-38.82346	1202.86694	-1732.16394	-16.01185	1050.70496	-1732.08423	67.44312	970.70062	-1752.47034	192.13258	909.65796	-1730.73999	145.81392	877.51508	-1752.8324	221.1167	839.98108	-1762.59802	-48.13934	1392.09875	-1335.83093	-118.94641	1196.90295	-1233.67273	-127.76951	1072.38721	-1230.65149	-110.91518	953.9046	-1198.15076	-40.1157	830.50085	-1213.63293	-83.84808	835.54877	-1175.19934	-54.46181	754.64795	-1177.16199	0.40328	926.74335	-1573.91602	14.56198	936.37305	-1357.67615	-182.1709	942.30737	-1506.55054	-169.25967	944.58252	-1362.20386	-69.66663	596.73102	-1611.51599	-97.65827	463.49475	-1590.78052	-177.0849	289.96912	-1589.78613	-232.49207	78.80682	-1527.0979	-277.31985	55.54312	-1470.80518	-87.89629	32.94336	-1534.81384	35.01551	608.78796	-1286.99988	93.1134	463.14526	-1316.85364	88.50769	290.57867	-1305.45508	129.82045	84.58297	-1347.01099	95.79725	34.71487	-1397.98633	274.43799	79.30143	-1347.40186	18.64405	1708.75073	-1460.99121	-1973.04651	1023.90253	3101.99341	-2012.51587	1022.03839	3140.58594	NaN	NaN	NaN
199	1.98	25.61975	1666.74426	-1549.17578	40.96587	1676.05078	-1436.62292	-88.30152	1616.38013	-1538.09534	-75.78194	1625.06311	-1417.86609	-119.72426	1430.81726	-1490.2876	-157.17944	1137.1936	-1466.849	23.64986	1361.43335	-1486.22363	65.7962	1206.04456	-1489.12671	-174.21339	1236.36206	-1406.50024	-33.13204	1387.59961	-1648.75879	-31.27552	1202.58838	-1731.65173	-7.82402	1050.4895	-1731.74146	76.2481	971.04688	-1752.04565	201.30734	910.86224	-1730.14258	155.37689	878.41412	-1752.46167	230.84694	841.31665	-1761.9054	-40.85723	1391.27563	-1335.16064	-112.00772	1196.12488	-1233.29565	-121.10649	1071.62354	-1230.29822	-104.25452	953.0448	-1197.8916	-33.62767	829.58337	-1213.39307	-77.16853	834.70813	-1174.96545	-47.68168	753.80963	-1176.99512	7.34275	926.21014	-1574.10974	22.51626	935.466	-1357.94836	-174.90425	941.77362	-1505.77734	-161.34607	943.80713	-1361.39343	-64.65161	596.42755	-1611.65271	-93.48528	463.27933	-1590.9502	-174.63286	290.64835	-1589.70605	-232.10217	79.87642	-1526.94604	-277.03534	57.20637	-1470.83545	-87.94355	32.91852	-1534.82996	41.18798	607.55219	-1286.77698	99.85277	462.61484	-1317.12744	99.85415	289.99939	-1305.04358	146.15149	85.29251	-1346.54382	112.65187	34.40022	-1397.12598	290.82382	83.1161	-1348.75842	26.24011	1708.07214	-1459.98083	-1973.12756	1023.41473	3101.98193	-2012.54565	1022.0387	3140.77002	NaN	NaN	NaN
200	1.99	33.11308	1666.14465	-1548.07251	48.49569	1675.33923	-1435.521	-80.90753	1615.92944	-1537.0072	-68.31669	1624.4624	-1416.74719	-112.46907	1430.26013	-1489.58301	-149.83038	1136.4812	-1466.17883	30.86407	1360.80811	-1485.50867	73.10957	1205.43494	-1488.66724	-166.93787	1235.54211	-1405.94336	-25.79409	1387.18445	-1647.95935	-23.78524	1202.28955	-1731.03308	0.36022	1050.29236	-1731.33704	84.94286	971.36078	-1751.54016	210.3378	911.95032	-1729.44348	164.66867	879.25122	-1751.84131	240.32193	842.6637	-1761.28333	-33.63306	1390.49829	-1334.38745	-105.03883	1195.26978	-1232.82776	-114.27757	1070.77625	-1229.89453	-97.32143	952.05682	-1197.48059	-26.75051	828.789	-1213.03589	-70.33283	833.74567	-1174.71826	-40.83939	752.99835	-1176.6897	14.29217	925.64178	-1574.21826	30.40071	934.44574	-1358.02856	-167.58928	941.19684	-1504.90027	-153.5919	943.01703	-1360.59192	-60.46735	595.89154	-1611.83411	-89.14997	463.10077	-1591.09302	-172.04439	291.24805	-1589.62109	-231.61308	81.06747	-1526.99341	-276.92233	59.00556	-1470.93188	-87.8791	32.85663	-1534.8009	47.82728	606.50378	-1286.4408	106.83357	462.12424	-1317.45667	111.47763	290.06696	-1304.77429	161.08409	85.77993	-1346.09021	128.16013	34.30647	-1396.23706	305.95438	86.35061	-1350.11438	33.78094	1707.33386	-1458.78369	-1973.02051	1024.12354	3102.12451	-2012.51367	1022.07861	3140.65259	NaN	NaN	NaN
201	2	40.56402	1665.56616	-1546.8728	56.00963	1674.59973	-1434.28259	-73.5241	1615.50806	-1535.79126	-60.26284	1623.7229	-1415.50903	-105.23328	1429.54736	-1488.62451	-142.41432	1135.80493	-1465.44824	38.13582	1360.18213	-1484.7063	80.3673	1204.77563	-1488.07031	-159.60924	1234.74121	-1405.38867	-18.49179	1386.849	-1647.1239	-16.2318	1202.02466	-1730.3728	8.51188	1050.09241	-1730.82776	93.55713	971.58752	-1750.96851	219.25777	912.90167	-1728.6925	173.75734	879.97687	-1751.20325	249.71852	843.75391	-1760.42383	-26.47047	1389.89172	-1333.48645	-97.91927	1194.36182	-1232.19812	-107.33503	1069.90149	-1229.41382	-90.44349	951.16028	-1197.09961	-19.45306	828.01532	-1212.48352	-63.34315	832.82343	-1174.22729	-33.82319	752.10693	-1176.25574	21.46543	925.11938	-1574.18262	38.43917	933.56879	-1357.95142	-160.18852	940.60278	-1503.96606	-145.68874	942.14661	-1359.70508	-55.16309	595.68207	-1611.93323	-84.65438	462.9895	-1591.26904	-169.21465	291.89847	-1589.61365	-231.01945	82.18284	-1527.12952	-276.34457	60.56562	-1470.98633	-87.7797	32.88715	-1534.83374	54.9663	605.62012	-1286.12781	114.15781	461.66351	-1317.85254	121.39717	289.70306	-1304.35925	174.5744	86.24689	-1345.83179	141.98215	33.65549	-1395.67468	319.70447	88.76257	-1351.11707	41.3355	1706.6947	-1457.59363	-1973.13806	1023.53406	3102.08765	-2012.55334	1021.98199	3140.71533	NaN	NaN	NaN
